<svg width="1024" height="1024" viewBox="0 0 1024 1024" fill="none" xmlns="http://www.w3.org/2000/svg">
<rect width="1024" height="1024" rx="240" fill="#FFF2E6"/>
<path d="M528.048 381.418C532.148 381.778 536.791 381.636 540.961 381.56C560.921 381.198 581.131 381.986 601.061 381.219L601.041 719.722C590.811 722.882 578.261 725.902 567.761 728.712L527.914 739.632L527.925 607.655C493.675 608.04 459.424 608.173 425.173 608.055C424.718 661.272 424.655 714.502 424.982 767.722C404.379 773.982 372.5 782.132 351.694 787.122C351.673 757.122 350.76 383.796 352.092 381.543C375.82 380.995 401.159 381.409 425.013 381.421L425.087 534.291C448.035 533.245 471.863 534.552 494.895 534.035C505.515 533.796 517.015 533.894 527.593 534.4L528.048 381.418Z" fill="#1A1919"/>
<path d="M654.071 381.533L806.921 381.578C832.561 381.582 860.711 381.076 886.161 382.138L886.011 454.281C836.121 453.051 777.051 453.78 727.021 454.492C727.421 474.202 726.981 495.566 726.961 515.459C761.401 513.68 807.661 515.028 842.921 515.291V545.498L843.051 586.974C804.601 586.998 765.471 587.72 727.101 587.244C728.411 617.966 725.401 655.488 727.661 685.148C708.331 691.708 674.291 700.128 653.891 705.128C655.241 597.891 653.141 489.089 654.071 381.533Z" fill="#1A1919"/>
<path d="M175.517 381.507C216.12 381.303 262.399 380.339 302.61 381.662L303.091 453.332C293.993 453.432 284.897 453.611 275.802 453.871C274.963 476.668 275.832 503.859 275.709 527.084C275.211 578.617 275.091 630.153 275.346 681.687C275.437 706.237 276.342 731.897 275.527 756.267L303.905 755.987C303.103 770.347 303.056 784.747 303.763 799.127C295.771 801.737 285.495 804.197 277.232 806.417C248.536 814.837 203.753 828.017 175.217 833.567C175.014 807.757 174.966 781.937 175.072 756.117C183.185 756.947 193.824 756.787 202.165 756.887L202.299 453.051C192.923 453.096 184.236 453.548 174.9 454.056C175.552 435.502 173.284 397.571 175.517 381.507Z" fill="#1A1919"/>
<path d="M654.99 46.0547C693.48 47.0227 734.86 45.9567 773.77 46.2647C771.75 68.8877 773.89 109.994 773.91 133.502C773.35 195.694 773.36 257.89 773.94 320.081C774 322.906 774.07 322.856 773.31 325.552C761.6 326.481 744.08 325.981 732.01 325.991L655.31 326.022C654.13 297.28 655 262.082 654.97 232.929L654.99 46.0547Z" fill="#EB5724"/>
<path d="M905.18 647.026C915.22 646.366 962.15 676.826 974.01 683.696C969.82 695.546 946.61 738.156 939.74 750.816C930.3 753.826 917.11 756.466 907.22 758.736C914.06 742.926 920.62 728.106 928.33 712.716L274.916 888.396C261.076 892.436 247.201 896.356 233.293 900.156C217.063 893.086 204.678 887.686 187.949 881.886C335.345 841.136 482.953 801.166 630.77 761.976C727 736.156 824.6 708.336 920.89 683.526C906.97 673.716 892.91 664.096 878.72 654.686C888.32 652.366 895.83 650.036 905.18 647.026Z" fill="#1A1919"/>
<path d="M495.079 104.081C529.907 104.407 580.339 106.141 613.749 103.867C613.279 177.814 613.339 251.764 613.939 325.71C606.729 326.567 584.399 326.025 575.699 326.019L495.066 326.119L495.079 104.081Z" fill="#EB5724"/>
<path d="M334.502 177.213C353.351 178.367 378.885 177.394 398.207 177.559C413.305 177.688 440.08 178.372 454.466 177.141C452.782 211.864 454.844 248.335 454.094 283.224C453.826 295.692 453.625 311.485 454.656 323.759L454.2 325.218C451.028 326.669 345.652 325.999 334.758 325.987C334.385 276.862 335.571 226.097 334.502 177.213Z" fill="#EB5724"/>
<path d="M808.08 765.208L811 765.188C811.61 769.178 795.85 793.658 792.44 799.398C710.38 824.068 620.98 846.388 537.95 868.588L399.782 905.908C383.891 910.178 368.026 915.098 352.073 918.978C342.54 915.958 330.776 910.958 321.297 907.238C316.261 904.888 309.135 902.298 303.842 900.208C342.59 891.968 387 877.998 425.896 867.688L661.15 804.428C709.23 791.378 759.81 776.968 808.08 765.208Z" fill="#1A1919"/>
<path d="M293.022 243.719L293.932 244.485L294.123 325.962L176.076 325.984L175.236 325.289C174.371 320.083 174.75 303.474 174.752 297.516L174.749 243.68C210.272 245.059 257.15 244.266 293.022 243.719Z" fill="#EB5724"/>
<path d="M702.88 844.218C705.07 843.928 704.26 843.898 706.4 844.478C700.71 854.958 691.55 868.828 685.13 879.478C674.39 883.938 627.76 895.398 614.57 898.888C568.86 911.008 523.216 923.398 477.647 936.048C467.55 932.388 457.274 928.258 447.237 924.368L429.725 917.518L702.88 844.218Z" fill="#1A1919"/>
</svg>
