<svg width="1024" height="1024" viewBox="0 0 1024 1024" fill="none" xmlns="http://www.w3.org/2000/svg">
    <mask id="mask0_1507_4312" style="mask-type:alpha" maskUnits="userSpaceOnUse" x="295" y="362" width="430" height="366">
        <path d="M295 480.649C295 456.713 302.258 433.341 315.815 413.619C329.371 393.896 348.589 378.752 370.929 370.185C393.27 361.619 417.682 360.034 440.942 365.639C464.202 371.245 485.215 383.777 501.206 401.581C502.332 402.785 503.694 403.746 505.206 404.403C506.719 405.059 508.35 405.398 509.999 405.398C511.648 405.398 513.28 405.059 514.792 404.403C516.305 403.746 517.667 402.785 518.793 401.581C534.734 383.661 555.752 371.024 579.049 365.35C602.347 359.677 626.819 361.236 649.209 369.822C671.598 378.407 690.844 393.61 704.383 413.409C717.922 433.207 725.113 456.661 724.999 480.649C724.999 529.905 692.749 566.686 660.499 598.951L542.421 713.23C538.415 717.833 533.476 721.531 527.931 724.077C522.387 726.624 516.364 727.961 510.264 727.999C504.163 728.038 498.124 726.777 492.548 724.301C486.971 721.825 481.986 718.191 477.921 713.639L359.5 598.951C327.25 566.686 295 530.121 295 480.649Z" fill="#D9D9D9"/>
    </mask>
    <g mask="url(#mask0_1507_4312)">
        <rect x="288" y="353" width="449" height="384" fill="#FF599C"/>
    </g>
    <path d="M512 147C713.584 147 877 310.416 877 512C877 713.584 713.584 877 512 877C310.416 877 147 713.584 147 512C147 456.346 159.457 403.601 181.733 356.401C171.928 345.019 166 330.202 166 314C166 278.101 195.101 249 231 249C239.27 249 247.178 250.545 254.454 253.361C320.462 187.63 411.486 147 512 147ZM512 187C423.998 187 344.165 221.978 285.645 278.788C292.196 288.935 296 301.023 296 314C296 349.899 266.899 379 231 379C225.889 379 220.916 378.409 216.145 377.294C197.428 418.334 187 463.949 187 512C187 691.493 332.507 837 512 837C691.493 837 837 691.493 837 512C837 332.507 691.493 187 512 187Z" fill="#3F4344"/>
</svg>